<svg xmlns="http://www.w3.org/2000/svg" width="920" height="640" viewBox="0 0 920 640" role="img" aria-label="Countries with highest reported shares of individuals in polygamous households in the Pew Africa comparison">
  <rect width="100%" height="100%" fill="#f7f6f2" />
  <text x="40" y="36" font-family="Geist Mono, monospace" font-size="14" fill="#0f0f0f">Highest reported polygamous-household shares in Pew's Africa comparison</text>
  <text x="40" y="56" font-family="Geist Mono, monospace" font-size="11" fill="#666">Source: Pew Research Center short-read figure, 2020 (2010-2018 underlying data)</text>

  <line x1="250" y1="82" x2="250" y2="596" stroke="#d8d6d0" stroke-width="1" />
  <line x1="390" y1="82" x2="390" y2="596" stroke="#d8d6d0" stroke-width="1" stroke-dasharray="4 6" />
  <line x1="530" y1="82" x2="530" y2="596" stroke="#d8d6d0" stroke-width="1" stroke-dasharray="4 6" />
  <line x1="670" y1="82" x2="670" y2="596" stroke="#d8d6d0" stroke-width="1" stroke-dasharray="4 6" />
  <line x1="810" y1="82" x2="810" y2="596" stroke="#d8d6d0" stroke-width="1" stroke-dasharray="4 6" />

  <text x="390" y="72" text-anchor="middle" font-family="Geist Mono, monospace" font-size="11" fill="#666">10%</text>
  <text x="530" y="72" text-anchor="middle" font-family="Geist Mono, monospace" font-size="11" fill="#666">20%</text>
  <text x="670" y="72" text-anchor="middle" font-family="Geist Mono, monospace" font-size="11" fill="#666">30%</text>
  <text x="810" y="72" text-anchor="middle" font-family="Geist Mono, monospace" font-size="11" fill="#666">40%</text>

  <text x="238" y="104" text-anchor="end" font-family="Geist Mono, monospace" font-size="12" fill="#0f0f0f">Burkina Faso</text><rect x="250" y="90" width="504" height="20" fill="#1a3a5c" /><text x="762" y="104" font-family="Geist Mono, monospace" font-size="12" fill="#0f0f0f">36%</text>
  <text x="238" y="136" text-anchor="end" font-family="Geist Mono, monospace" font-size="12" fill="#0f0f0f">Mali</text><rect x="250" y="122" width="476" height="20" fill="#1a3a5c" /><text x="734" y="136" font-family="Geist Mono, monospace" font-size="12" fill="#0f0f0f">34%</text>
  <text x="238" y="168" text-anchor="end" font-family="Geist Mono, monospace" font-size="12" fill="#0f0f0f">Gambia</text><rect x="250" y="154" width="420" height="20" fill="#1a3a5c" /><text x="678" y="168" font-family="Geist Mono, monospace" font-size="12" fill="#0f0f0f">30%</text>
  <text x="238" y="200" text-anchor="end" font-family="Geist Mono, monospace" font-size="12" fill="#0f0f0f">Niger</text><rect x="250" y="186" width="406" height="20" fill="#1a3a5c" /><text x="664" y="200" font-family="Geist Mono, monospace" font-size="12" fill="#0f0f0f">29%</text>
  <text x="238" y="232" text-anchor="end" font-family="Geist Mono, monospace" font-size="12" fill="#0f0f0f">Nigeria</text><rect x="250" y="218" width="392" height="20" fill="#1a3a5c" /><text x="650" y="232" font-family="Geist Mono, monospace" font-size="12" fill="#0f0f0f">28%</text>
  <text x="238" y="264" text-anchor="end" font-family="Geist Mono, monospace" font-size="12" fill="#0f0f0f">Guinea</text><rect x="250" y="250" width="364" height="20" fill="#1a3a5c" /><text x="622" y="264" font-family="Geist Mono, monospace" font-size="12" fill="#0f0f0f">26%</text>
  <text x="238" y="296" text-anchor="end" font-family="Geist Mono, monospace" font-size="12" fill="#0f0f0f">Guinea-Bissau</text><rect x="250" y="282" width="322" height="20" fill="#1a3a5c" /><text x="580" y="296" font-family="Geist Mono, monospace" font-size="12" fill="#0f0f0f">23%</text>
  <text x="238" y="328" text-anchor="end" font-family="Geist Mono, monospace" font-size="12" fill="#0f0f0f">Senegal</text><rect x="250" y="314" width="322" height="20" fill="#1a3a5c" /><text x="580" y="328" font-family="Geist Mono, monospace" font-size="12" fill="#0f0f0f">23%</text>
  <text x="238" y="360" text-anchor="end" font-family="Geist Mono, monospace" font-size="12" fill="#0f0f0f">Togo</text><rect x="250" y="346" width="238" height="20" fill="#1a3a5c" /><text x="496" y="360" font-family="Geist Mono, monospace" font-size="12" fill="#0f0f0f">17%</text>
  <text x="238" y="392" text-anchor="end" font-family="Geist Mono, monospace" font-size="12" fill="#0f0f0f">Chad</text><rect x="250" y="378" width="210" height="20" fill="#1a3a5c" /><text x="468" y="392" font-family="Geist Mono, monospace" font-size="12" fill="#0f0f0f">15%</text>
  <text x="238" y="424" text-anchor="end" font-family="Geist Mono, monospace" font-size="12" fill="#0f0f0f">Cameroon</text><rect x="250" y="410" width="182" height="20" fill="#1a3a5c" /><text x="440" y="424" font-family="Geist Mono, monospace" font-size="12" fill="#0f0f0f">13%</text>
  <text x="238" y="456" text-anchor="end" font-family="Geist Mono, monospace" font-size="12" fill="#0f0f0f">Ivory Coast</text><rect x="250" y="442" width="168" height="20" fill="#1a3a5c" /><text x="426" y="456" font-family="Geist Mono, monospace" font-size="12" fill="#0f0f0f">12%</text>
  <text x="238" y="488" text-anchor="end" font-family="Geist Mono, monospace" font-size="12" fill="#0f0f0f">Benin</text><rect x="250" y="474" width="140" height="20" fill="#1a3a5c" /><text x="398" y="488" font-family="Geist Mono, monospace" font-size="12" fill="#0f0f0f">10%</text>
  <text x="238" y="520" text-anchor="end" font-family="Geist Mono, monospace" font-size="12" fill="#0f0f0f">Central African Rep.</text><rect x="250" y="506" width="112" height="20" fill="#1a3a5c" /><text x="370" y="520" font-family="Geist Mono, monospace" font-size="12" fill="#0f0f0f">8%</text>
  <text x="238" y="552" text-anchor="end" font-family="Geist Mono, monospace" font-size="12" fill="#0f0f0f">D.R. Congo</text><rect x="250" y="538" width="28" height="20" fill="#1a3a5c" /><text x="286" y="552" font-family="Geist Mono, monospace" font-size="12" fill="#0f0f0f">2%</text>

  <line x1="250" y1="586" x2="810" y2="586" stroke="#d8d6d0" stroke-width="1" />
</svg>
