<svg xmlns="http://www.w3.org/2000/svg" width="100%" viewBox="0 84 860 240" role="img" aria-label="Africa-wide internet use context for 2024">
  <rect width="100%" height="100%" fill="var(--paper)" />

  <text x="80" y="112" font-family="Geist Mono, monospace" font-size="10" fill="var(--ink)">Africa-wide internet use</text>
  <rect x="250" y="100" width="500" height="18" fill="color-mix(in srgb, var(--dim) 18%, transparent)" />
  <rect x="250" y="100" width="190" height="18" fill="#1a3a5c" />
  <text x="450" y="113" font-family="Geist Mono, monospace" font-size="10" fill="var(--ink)">38%</text>

  <text x="80" y="156" font-family="Geist Mono, monospace" font-size="10" fill="var(--ink)">Urban</text>
  <rect x="250" y="144" width="500" height="18" fill="color-mix(in srgb, var(--dim) 18%, transparent)" />
  <rect x="250" y="144" width="285" height="18" fill="#1a3a5c" />
  <text x="545" y="157" font-family="Geist Mono, monospace" font-size="10" fill="var(--ink)">57%</text>

  <text x="80" y="200" font-family="Geist Mono, monospace" font-size="10" fill="var(--ink)">Rural</text>
  <rect x="250" y="188" width="500" height="18" fill="color-mix(in srgb, var(--dim) 18%, transparent)" />
  <rect x="250" y="188" width="115" height="18" fill="#1a3a5c" />
  <text x="375" y="201" font-family="Geist Mono, monospace" font-size="10" fill="var(--ink)">23%</text>

  <text x="80" y="244" font-family="Geist Mono, monospace" font-size="10" fill="var(--ink)">Men</text>
  <rect x="250" y="232" width="500" height="18" fill="color-mix(in srgb, var(--dim) 18%, transparent)" />
  <rect x="250" y="232" width="215" height="18" fill="#1a3a5c" />
  <text x="475" y="245" font-family="Geist Mono, monospace" font-size="10" fill="var(--ink)">43%</text>

  <text x="80" y="288" font-family="Geist Mono, monospace" font-size="10" fill="var(--ink)">Women</text>
  <rect x="250" y="276" width="500" height="18" fill="color-mix(in srgb, var(--dim) 18%, transparent)" />
  <rect x="250" y="276" width="155" height="18" fill="#1a3a5c" />
  <text x="415" y="289" font-family="Geist Mono, monospace" font-size="10" fill="var(--ink)">31%</text>
</svg>
