<svg xmlns="http://www.w3.org/2000/svg" width="100%" viewBox="0 0 860 360" role="img" aria-label="Ghana and Nigeria internet use comparison for 2023 with near-identical 1GB prices">
  <rect width="100%" height="100%" fill="var(--paper)" />
  <text x="60" y="44" font-family="Geist Mono, monospace" font-size="11" fill="var(--dim)">Nigeria and Ghana (2023)</text>
  <line x1="60" y1="64" x2="760" y2="64" stroke="var(--rule)" stroke-width="1" />
  <text x="60" y="92" font-family="Geist Mono, monospace" font-size="11" fill="var(--ink)">Near-identical 1GB prices, very different internet-use rates.</text>

  <line x1="140" y1="304" x2="560" y2="304" stroke="var(--rule)" stroke-width="1" />
  <line x1="140" y1="124" x2="140" y2="304" stroke="var(--rule)" stroke-width="1" />
  <line x1="140" y1="160" x2="560" y2="160" stroke="var(--rule)" stroke-width="1" stroke-dasharray="4 6" />
  <line x1="140" y1="196" x2="560" y2="196" stroke="var(--rule)" stroke-width="1" stroke-dasharray="4 6" />
  <line x1="140" y1="232" x2="560" y2="232" stroke="var(--rule)" stroke-width="1" stroke-dasharray="4 6" />
  <line x1="140" y1="268" x2="560" y2="268" stroke="var(--rule)" stroke-width="1" stroke-dasharray="4 6" />

  <text x="126" y="308" text-anchor="end" font-family="Geist Mono, monospace" font-size="10" fill="var(--dim)">0%</text>
  <text x="126" y="272" text-anchor="end" font-family="Geist Mono, monospace" font-size="10" fill="var(--dim)">20%</text>
  <text x="126" y="236" text-anchor="end" font-family="Geist Mono, monospace" font-size="10" fill="var(--dim)">40%</text>
  <text x="126" y="200" text-anchor="end" font-family="Geist Mono, monospace" font-size="10" fill="var(--dim)">60%</text>
  <text x="126" y="164" text-anchor="end" font-family="Geist Mono, monospace" font-size="10" fill="var(--dim)">80%</text>

  <rect x="220" y="178.18" width="92" height="125.82" fill="#c17f4a" />
  <rect x="388" y="233.44" width="92" height="70.56" fill="#1a3a5c" />
  <text x="266" y="171" text-anchor="middle" font-family="Geist Mono, monospace" font-size="12" fill="var(--ink)">69.9%</text>
  <text x="434" y="226" text-anchor="middle" font-family="Geist Mono, monospace" font-size="12" fill="var(--ink)">39.2%</text>
  <text x="266" y="330" text-anchor="middle" font-family="Geist Mono, monospace" font-size="10" fill="var(--ink)">Ghana</text>
  <text x="434" y="330" text-anchor="middle" font-family="Geist Mono, monospace" font-size="10" fill="var(--ink)">Nigeria</text>

  <rect x="612" y="176" width="148" height="28" rx="2" fill="rgba(193,127,74,0.12)" />
  <rect x="612" y="216" width="148" height="28" rx="2" fill="rgba(26,58,92,0.12)" />
  <text x="686" y="194" text-anchor="middle" font-family="Geist Mono, monospace" font-size="10" fill="var(--ink)">Ghana: $0.40 / 1GB</text>
  <text x="686" y="234" text-anchor="middle" font-family="Geist Mono, monospace" font-size="10" fill="var(--ink)">Nigeria: $0.39 / 1GB</text>
</svg>
