<svg xmlns="http://www.w3.org/2000/svg" width="100%" viewBox="0 0 860 340" role="img" aria-label="Contexte ITU Afrique entiere 2024 sur l'usage internet">
  <rect width="100%" height="100%" fill="var(--paper)" />
  <text x="60" y="44" font-family="Geist Mono, monospace" font-size="11" fill="var(--dim)">Contexte ITU Afrique entiere (2024)</text>
  <line x1="60" y1="64" x2="760" y2="64" stroke="var(--rule)" stroke-width="1" />

  <text x="60" y="112" font-family="Geist Mono, monospace" font-size="10" fill="var(--ink)">Usage internet total</text>
  <rect x="240" y="100" width="300" height="18" fill="color-mix(in srgb, var(--dim) 18%, transparent)" />
  <rect x="240" y="100" width="114" height="18" fill="#1a3a5c" />
  <text x="364" y="113" font-family="Geist Mono, monospace" font-size="10" fill="var(--ink)">38%</text>

  <text x="60" y="156" font-family="Geist Mono, monospace" font-size="10" fill="var(--ink)">Urbain</text>
  <rect x="240" y="144" width="300" height="18" fill="color-mix(in srgb, var(--dim) 18%, transparent)" />
  <rect x="240" y="144" width="171" height="18" fill="#1a3a5c" />
  <text x="421" y="157" font-family="Geist Mono, monospace" font-size="10" fill="var(--ink)">57%</text>

  <text x="60" y="200" font-family="Geist Mono, monospace" font-size="10" fill="var(--ink)">Rural</text>
  <rect x="240" y="188" width="300" height="18" fill="color-mix(in srgb, var(--dim) 18%, transparent)" />
  <rect x="240" y="188" width="69" height="18" fill="#1a3a5c" />
  <text x="319" y="201" font-family="Geist Mono, monospace" font-size="10" fill="var(--ink)">23%</text>

  <text x="60" y="244" font-family="Geist Mono, monospace" font-size="10" fill="var(--ink)">Hommes</text>
  <rect x="240" y="232" width="300" height="18" fill="color-mix(in srgb, var(--dim) 18%, transparent)" />
  <rect x="240" y="232" width="129" height="18" fill="#1a3a5c" />
  <text x="379" y="245" font-family="Geist Mono, monospace" font-size="10" fill="var(--ink)">43%</text>

  <text x="60" y="288" font-family="Geist Mono, monospace" font-size="10" fill="var(--ink)">Femmes</text>
  <rect x="240" y="276" width="300" height="18" fill="color-mix(in srgb, var(--dim) 18%, transparent)" />
  <rect x="240" y="276" width="93" height="18" fill="#1a3a5c" />
  <text x="343" y="289" font-family="Geist Mono, monospace" font-size="10" fill="var(--ink)">31%</text>
</svg>
