<svg xmlns="http://www.w3.org/2000/svg" width="860" height="380" viewBox="0 0 860 380" role="img" aria-label="Cabinet versus parliamentary representation in four African countries where appointment exceeds election" style="width:100%;height:auto;">
  <rect width="100%" height="100%" fill="var(--paper)"/>
  <line x1="220" y1="44" x2="220" y2="326" stroke="var(--rule)" stroke-width="1"/>
  <line x1="320" y1="44" x2="320" y2="326" stroke="var(--rule)" stroke-width="1" stroke-dasharray="4 6"/>
  <line x1="420" y1="44" x2="420" y2="326" stroke="var(--rule)" stroke-width="1" stroke-dasharray="4 6"/>
  <line x1="520" y1="44" x2="520" y2="326" stroke="var(--rule)" stroke-width="1" stroke-dasharray="4 6"/>
  <line x1="620" y1="44" x2="620" y2="326" stroke="var(--rule)" stroke-width="1" stroke-dasharray="4 6"/>
  <line x1="720" y1="44" x2="720" y2="326" stroke="var(--rule)" stroke-width="1" stroke-dasharray="4 6"/>
  <text x="130" y="36" font-family="Geist Mono, monospace" font-size="11" fill="#1a3a5c">▪ Parliament</text>
  <text x="270" y="36" font-family="Geist Mono, monospace" font-size="11" fill="#3a6b50">▪ Cabinet</text>
  <text x="215" y="76" text-anchor="end" font-family="Geist Mono, monospace" font-size="12" fill="var(--ink)">Madagascar</text>
  <rect x="220" y="56" width="141" height="20" fill="#1a3a5c"/>
  <text x="367" y="70" font-family="Geist Mono, monospace" font-size="11" fill="var(--dim)">14.1%</text>
  <rect x="220" y="80" width="423" height="20" fill="#3a6b50"/>
  <text x="649" y="94" font-family="Geist Mono, monospace" font-size="11" fill="var(--dim)">42.3%</text>
  <text x="215" y="148" text-anchor="end" font-family="Geist Mono, monospace" font-size="12" fill="var(--ink)">Sao Tome</text>
  <rect x="220" y="128" width="146" height="20" fill="#1a3a5c"/>
  <text x="372" y="142" font-family="Geist Mono, monospace" font-size="11" fill="var(--dim)">14.6%</text>
  <rect x="220" y="152" width="417" height="20" fill="#3a6b50"/>
  <text x="643" y="166" font-family="Geist Mono, monospace" font-size="11" fill="var(--dim)">41.7%</text>
  <text x="215" y="220" text-anchor="end" font-family="Geist Mono, monospace" font-size="12" fill="var(--ink)">Liberia</text>
  <rect x="220" y="200" width="110" height="20" fill="#1a3a5c"/>
  <text x="336" y="214" font-family="Geist Mono, monospace" font-size="11" fill="var(--dim)">11.0%</text>
  <rect x="220" y="224" width="353" height="20" fill="#3a6b50"/>
  <text x="579" y="238" font-family="Geist Mono, monospace" font-size="11" fill="var(--dim)">35.3%</text>
  <text x="215" y="292" text-anchor="end" font-family="Geist Mono, monospace" font-size="12" fill="var(--ink)">Togo</text>
  <rect x="220" y="272" width="150" height="20" fill="#1a3a5c"/>
  <text x="376" y="286" font-family="Geist Mono, monospace" font-size="11" fill="var(--dim)">15.0%</text>
  <rect x="220" y="296" width="323" height="20" fill="#3a6b50"/>
  <text x="549" y="310" font-family="Geist Mono, monospace" font-size="11" fill="var(--dim)">32.3%</text>
  <line x1="220" y1="326" x2="760" y2="326" stroke="var(--rule)" stroke-width="1"/>
  <text x="220" y="344" text-anchor="middle" font-family="Geist Mono, monospace" font-size="11" fill="var(--dim)">0%</text>
  <text x="320" y="344" text-anchor="middle" font-family="Geist Mono, monospace" font-size="11" fill="var(--dim)">10</text>
  <text x="420" y="344" text-anchor="middle" font-family="Geist Mono, monospace" font-size="11" fill="var(--dim)">20</text>
  <text x="520" y="344" text-anchor="middle" font-family="Geist Mono, monospace" font-size="11" fill="var(--dim)">30</text>
  <text x="620" y="344" text-anchor="middle" font-family="Geist Mono, monospace" font-size="11" fill="var(--dim)">40</text>
  <text x="720" y="344" text-anchor="middle" font-family="Geist Mono, monospace" font-size="11" fill="var(--dim)">50%</text>
</svg>
